# xmcd
# 
# Track frame offsets:
#     150
#     19277
#     41907
#     56227
#     71170
#     90610
#     106075
#     130942
#     152155
#     167892
#     190055
#     203267
#     216917
#     236445
#     257830
#     277245
#     294242
#     317042
#     331867
# 
# Disc length: 4654
# 
# Revision: 5
# Processed by: cddbd v1.5.2PL0 Copyright (c) Steve Scherf et al.
# Submitted via: BonkEnc v1.0.8
# 
DISCID=1c122c13
DTITLE=Ry Cooder - River Rescue - The Very Best Of
DYEAR=0
DGENRE=
TTITLE0=River Come Down (PKA Bamboo)
TTITLE1=UFO Has Landed in the Ghetto
TTITLE2=Low-Commotion
TTITLE3=Smack Dab in the Middle
TTITLE4=Tattler
TTITLE5=Dark End of the Street
TTITLE6=The Very Thing that Makes You Rich (Makes Me Poor)
TTITLE7=Going Back to Okinawa
TTITLE8=Money Honey
TTITLE9=Why Don't You Try Me
TTITLE10=Paris, Texas
TTITLE11=Chloe
TTITLE12=The Pearls/Tia Juana
TTITLE13=I Think It's Going to Work Out Fine
TTITLE14=Down In Hollywood
TTITLE15=Which Came First
TTITLE16=Craqy 'bout an Automobile (Every Woman I Know)
TTITLE17=Get Rhythm
TTITLE18=Little Sister
EXTD=
EXTT0=
EXTT1=
EXTT2=
EXTT3=
EXTT4=
EXTT5=
EXTT6=
EXTT7=
EXTT8=
EXTT9=
EXTT10=
EXTT11=
EXTT12=
EXTT13=
EXTT14=
EXTT15=
EXTT16=
EXTT17=With Larry Blackmon
EXTT18=
PLAYORDER=
